PathFileType	4	(X/Y/Z)	Patient4_TMGait_0pt7_02_left_36.trc.trc
DataRate	CameraRate	NumFrames	NumMarkers	Units	OrigDataRate	OrigDataStartFrame	OrigNumFrames
88.050314465409	88.050314465409	4	33	mm	88.050314465409	71	       141
Frame#	Time	Sacral			L.Shoulder			Chest			R.Shoulder			Neck			R.ASIS			L.ASIS			R.Thigh.Superior			R.Thigh.Lateral			R.Thigh.Inferior			R.Patella			L.Thigh.Superior			L.Thigh.Lateral			L.Thigh.Inferior			L.Patella			L.Shank.Superior			L.Shank.Lateral			L.Shank.Inferior			R.Shank.Superior			R.Shank.Lateral			R.Shank.Inferior			R.Heel			R.Midfoot.Superior			R.Midfoot.Lateral			R.Toe			L.Heel			L.Midfoot.Lateral			L.Midfoot.Superior			L.Toe			L.Elbow			L.Wrist			R.Elbow			R.Wrist			
		X1	Y1	Z1	X2	Y2	Z2	X3	Y3	Z3	X4	Y4	Z4	X5	Y5	Z5	X6	Y6	Z6	X7	Y7	Z7	X8	Y8	Z8	X9	Y9	Z9	X10	Y10	Z10	X11	Y11	Z11	X12	Y12	Z12	X13	Y13	Z13	X14	Y14	Z14	X15	Y15	Z15	X16	Y16	Z16	X17	Y17	Z17	X18	Y18	Z18	X19	Y19	Z19	X20	Y20	Z20	X21	Y21	Z21	X22	Y22	Z22	X23	Y23	Z23	X24	Y24	Z24	X25	Y25	Z25	X26	Y26	Z26	X27	Y27	Z27	X28	Y28	Z28	X29	Y29	Z29	X30	Y30	Z30	X31	Y31	Z31	X32	Y32	Z32	X33	Y33	Z33	

71	41.985000000000	744.900048576577	1011.294185175797	426.650310661743	965.082222711571	1418.502879023790	239.592990126163	1052.561477267516	1345.718528248961	409.573869946323	965.840327643075	1435.352280345720	574.096378222166	956.746655495510	1485.336008633471	391.128223813021	959.193112925989	934.828582443741	559.158275923513	965.101538014436	953.837178608106	283.172155656840	1041.340759036348	782.023139291000	536.943887713829	1009.667048076927	659.928918647838	618.599085912796	1106.971800465687	629.483570459579	545.640572105698	1148.027094840352	541.641224168727	570.792176530216	960.500608145475	730.226948037141	312.254027996460	840.890373623679	638.547507022175	251.379165505299	898.964588850227	544.053546363618	315.774287322601	883.263271246683	480.190738853112	326.193430374009	851.609803276595	414.981926223359	320.598445062752	752.625030005232	306.927077016472	271.536435100616	794.063847549537	194.293955539449	349.350668985796	1122.783107126263	450.377926249204	580.332400286188	1055.000747009223	344.244106384827	643.015854134134	1116.980714541422	250.521709496506	597.922699447803	1009.418645120043	69.782907086612	570.215098557865	1173.378294002684	137.474864916177	618.258011394090	1088.859015150467	66.713025498712	648.012507590979	1293.111588612311	95.643069760680	652.733782807483	656.276202661488	42.322671756274	394.701582477143	734.541752047669	35.770891787360	319.237387347338	817.087942383380	95.844726187286	347.472676778918	945.883077416344	41.685449701516	329.159301305518	1029.695612808164	1098.616078319299	90.068509176256	1275.076263655699	1104.992730520683	159.694133905185	808.196139913993	1136.379155588719	703.403431086722	756.307312523389	880.851503685079	735.870700114134	
72	41.996357142857	746.042344997779	1009.560628044702	428.740641575755	964.690976237642	1417.242265300277	241.430267421749	1052.814649997215	1344.445681446721	411.051485907897	966.497108515267	1434.052664933767	575.785528624048	956.773765718287	1483.810136050551	392.835373176508	960.897366993920	932.644310318403	560.313764514669	965.481232911462	952.849785521153	284.059204226652	1040.567336545685	777.177082549227	538.032447966242	1006.445505423951	654.840757842275	618.606549072620	1103.381274970612	623.635498785685	545.437478669525	1143.342457235404	537.233509665020	569.337798579627	958.894357536578	728.700231979027	312.753217877654	837.939781797783	638.233159790737	252.068686329246	895.169186373992	543.043496486121	316.124322360972	878.862515607174	479.122233724978	326.472458709848	846.537229306055	414.306109908410	320.858545433425	746.417262019824	307.232559342071	271.901400743343	786.963168834095	194.079402942401	349.438604897960	1120.513068421039	446.208917592262	579.231247168285	1055.824720799672	337.886102259610	641.488217557644	1121.068528144877	246.164408391234	596.389710774205	1019.259727135920	62.394174403265	568.163900647987	1181.396809781803	134.131098562565	616.343129712299	1098.662925410115	61.394676761720	646.046519954168	1302.259533741015	95.454716363351	651.074648343505	648.322212866716	42.677786017589	394.675377842762	726.577571948206	35.874061758515	319.276835377826	809.182938072939	95.836160997336	347.464564065849	937.916478878710	41.463745981855	329.143871688800	1030.354432077341	1098.319451355683	91.153039489266	1273.729846217392	1117.918880374125	162.936693070694	802.573030315379	1139.799014593515	705.412575877565	744.297542575471	885.759006529364	735.810133025153	
73	42.007714285714	747.371600100157	1007.689098597345	431.100344460439	964.166549526088	1415.901244845365	243.371954209767	1053.060430127127	1343.236269929602	412.623999315419	967.105374544343	1432.768637651028	577.581082181940	956.700692471900	1482.218255557387	394.657087491718	962.921369389578	930.379793308520	561.554172776908	966.039458492022	951.795903944407	285.091762606411	1040.215056894984	772.182047085776	539.214079048930	1003.438340336171	649.691121380715	618.560113187769	1099.966150006277	617.712768049223	545.168239398877	1138.619309752062	532.538778726031	567.769119241263	957.651102130020	727.108249410313	313.433416032676	835.419195351070	637.830040809443	252.931891661956	891.820067538839	541.955290144497	316.661774595135	874.900120769089	477.929385169231	326.954613611573	841.871102589827	413.513183186796	321.274285227092	740.525383815277	307.538882072214	272.364257465855	779.999763495284	193.823036764616	349.598754096868	1117.836810100900	441.714714583053	577.983994288710	1055.589702895820	331.625932645958	639.603856314490	1123.509322721459	241.665468595288	594.484594702266	1026.251826311479	56.016680687024	565.649288035649	1187.018720133885	130.428873943851	613.862796810741	1105.559821985681	56.474717851994	643.616282950946	1308.651921300728	93.920129103344	648.852225408117	640.380208431310	43.099700581307	394.645464693958	718.626261576066	36.015858102343	319.310549989522	801.299061593838	95.841171201690	347.467291130252	929.965066139387	41.206522059280	329.124879215106	1030.647816266678	1097.812236630912	92.323606280660	1271.509178245133	1129.549950415051	166.115889666103	797.394750991893	1143.110834046616	707.446603066896	733.695646475838	890.398158719899	735.781474910032	
74	42.019071428571	748.850083346622	1005.738545071246	433.702064530696	963.535110341819	1414.507584214612	245.411216675716	1053.313306981166	1342.119740712689	414.292045311159	967.673851652333	1431.517450698081	579.487533180540	956.553306435888	1480.601190054633	396.599171340219	965.205883550011	928.086438386674	562.886387576654	966.778170130264	950.684516929754	286.318662308598	1040.325379268957	767.187447766604	540.467770193640	1000.733797585623	644.641213533353	618.445025068199	1096.833049709578	611.916824494179	544.837339018973	1134.004566522042	527.719475304027	566.114154223683	956.812575265670	725.478081366005	314.302450465803	833.382778175382	637.345631251865	253.975781926549	888.975255119948	540.800400113377	317.397688660162	871.443896170176	476.617510559304	327.651307986425	837.661731756272	412.603710744769	321.857831324208	735.001707468262	307.862557178642	272.920515640515	773.205234979979	193.542382453579	349.823571775912	1114.884063345454	437.039524656731	576.621066832466	1054.415668474651	325.600387678080	637.470580389441	1124.370366781382	237.090485564797	592.306222282085	1030.309852118273	50.735322388436	562.867668031416	1190.288954496170	126.373806006079	610.922723041222	1109.525435856659	51.994206523404	640.891807247472	1312.353384237371	90.926520764730	646.111212161477	632.454409237546	43.626142160067	394.595606398975	710.693102483609	36.209071102440	319.328205378808	793.454503570233	95.869916069097	347.465144005785	922.032482703793	40.912492356946	329.102346070696	1030.531431960883	1097.081466788946	93.589838199224	1268.540148629715	1139.804925553877	169.222234330856	792.794278831930	1146.171420901407	709.474372677495	724.450721886849	894.601768402819	735.887212665352	
